HIERARCHY
ROOT Hips
{
	OFFSET 0.000000 0.000000 0.000000
	CHANNELS 6 Xposition Yposition Zposition Xrotation Yrotation Zrotation
	JOINT LeftUpLeg_virtual
	{
		OFFSET 0.000000 0.000000 0.000000
		CHANNELS 3 Xrotation Yrotation Zrotation
		JOINT LeftUpLeg
		{
			OFFSET 10.205400 -3.823500 0.155100
			CHANNELS 3 Xrotation Yrotation Zrotation
			JOINT LeftLeg
			{
				OFFSET 0.708757 -12.982077 0.567790
				CHANNELS 3 Xrotation Yrotation Zrotation
				JOINT LeftFoot
				{
					OFFSET -0.708756 -10.717838 -2.184338
					CHANNELS 3 Xrotation Yrotation Zrotation
					JOINT LeftToeBase
					{
						OFFSET 0.108149 -7.191104 7.560241
						CHANNELS 3 Xrotation Yrotation Zrotation
						JOINT LeftToe_End
						{
							OFFSET 0.070230 0.081724 4.490308
							CHANNELS 3 Xrotation Yrotation Zrotation
							End Site
							{
								OFFSET 0 0 0
							}
						}
					}
				}
			}
		}
	}
	JOINT RightUpLeg_virtual
	{
		OFFSET 0.000000 0.000000 0.000000
		CHANNELS 3 Xrotation Yrotation Zrotation
		JOINT RightUpLeg
		{
			OFFSET -10.205400 -3.823500 0.005500
			CHANNELS 3 Xrotation Yrotation Zrotation
			JOINT RightLeg
			{
				OFFSET -0.708756 -12.982134 0.610632
				CHANNELS 3 Xrotation Yrotation Zrotation
				JOINT RightFoot
				{
					OFFSET 0.708754 -10.717769 -1.945823
					CHANNELS 3 Xrotation Yrotation Zrotation
					JOINT RightToeBase
					{
						OFFSET -0.108140 -7.191069 7.372968
						CHANNELS 3 Xrotation Yrotation Zrotation
						JOINT RightToe_End
						{
							OFFSET -0.070227 0.081735 4.479403
							CHANNELS 3 Xrotation Yrotation Zrotation
							End Site
							{
								OFFSET 0 0 0
							}
						}
					}
				}
			}
		}
	}
	JOINT Spine_virtual
	{
		OFFSET 0.000000 0.000000 0.000000
		CHANNELS 3 Xrotation Yrotation Zrotation
		JOINT Spine
		{
			OFFSET 0.000000 6.876099 0.125700
			CHANNELS 3 Xrotation Yrotation Zrotation
			JOINT Spine1
			{
				OFFSET 0.000000 5.730043 0.104720
				CHANNELS 3 Xrotation Yrotation Zrotation
				JOINT Spine1_split
				{
					OFFSET 0.000000 5.730043 0.104720
					CHANNELS 3 Xrotation Yrotation Zrotation
					JOINT Spine2
					{
						OFFSET 0.000000 5.730043 0.104720
						CHANNELS 3 Xrotation Yrotation Zrotation
						JOINT Neck_virtual
						{
							OFFSET 0.000000 0.000000 0.000000
							CHANNELS 3 Xrotation Yrotation Zrotation
							JOINT Neck
							{
								OFFSET 0.000000 10.314075 0.188496
								CHANNELS 3 Xrotation Yrotation Zrotation
								JOINT Head
								{
									OFFSET 0.000000 7.643700 -2.377400
									CHANNELS 3 Xrotation Yrotation Zrotation
									JOINT HeadTop_End
									{
										OFFSET 0.000000 43.788605 -13.619600
										CHANNELS 3 Xrotation Yrotation Zrotation
										End Site
										{
											OFFSET 0 0 0
										}
									}
								}
							}
						}
						JOINT LeftShoulder_virtual
						{
							OFFSET 0.000000 0.000000 0.000000
							CHANNELS 3 Xrotation Yrotation Zrotation
							JOINT LeftShoulder
							{
								OFFSET 2.196100 4.412489 0.087492
								CHANNELS 3 Xrotation Yrotation Zrotation
								JOINT LeftShoulder_split
								{
									OFFSET 2.196100 4.412489 0.087492
									CHANNELS 3 Xrotation Yrotation Zrotation
									JOINT LeftArm
									{
										OFFSET 8.771219 -2.981674 -0.026999
										CHANNELS 3 Xrotation Yrotation Zrotation
										JOINT LeftForeArm
										{
											OFFSET 8.512804 0.000000 -0.000000
											CHANNELS 3 Xrotation Yrotation Zrotation
											JOINT LeftHand
											{
												OFFSET 18.484802 0.000000 -0.000000
												CHANNELS 3 Xrotation Yrotation Zrotation
												End Site
												{
													OFFSET 0 0 0
												}
											}
										}
									}
								}
							}
						}
						JOINT RightShoulder_virtual
						{
							OFFSET 0.000000 0.000000 0.000000
							CHANNELS 3 Xrotation Yrotation Zrotation
							JOINT RightShoulder
							{
								OFFSET -2.196100 4.412496 0.070690
								CHANNELS 3 Xrotation Yrotation Zrotation
								JOINT RightShoulder_split
								{
									OFFSET -2.196100 4.412496 0.070690
									CHANNELS 3 Xrotation Yrotation Zrotation
									JOINT RightArm
									{
										OFFSET -8.771282 -2.981682 -0.094208
										CHANNELS 3 Xrotation Yrotation Zrotation
										JOINT RightForeArm
										{
											OFFSET -8.494598 0.000000 0.000000
											CHANNELS 3 Xrotation Yrotation Zrotation
											JOINT RightHand
											{
												OFFSET -18.483803 0.000000 0.000001
												CHANNELS 3 Xrotation Yrotation Zrotation
												End Site
												{
													OFFSET 0 0 0
												}
											}
										}
									}
								}
							}
						}
					}
				}
			}
		}
	}
}
MOTION
Frames: 10
Frame Time: 0.03333333
-0.796110 26.686916 1.332306 0.000000 0.000000 0.000000 4.789444 58.492401 -8.832002 -2.981963 7.290194 30.752182 55.222028 -10.696496 11.569318 -34.982856 10.700639 -25.275796 -6.613226 0.765707 -3.709639 0.000000 0.000000 0.000000 7.510641 58.811842 -10.726191 -38.490548 16.226815 -30.441849 34.135991 11.472452 -1.562465 -5.043702 5.684040 19.077033 -7.069280 -0.951231 1.761902 0.000000 0.000000 0.000000 7.199964 61.132488 -8.101986 0.776531 -3.089925 -1.960613 2.811157 -0.649119 -0.283738 1.231913 -1.007603 0.221918 0.000000 0.000000 0.000000 1.757805 -1.143638 0.031370 -5.911031 -10.789230 -1.308160 -1.157650 -41.837436 6.711045 0.000000 0.000000 0.000000 1.581604 -1.144683 -0.288841 0.356457 -8.446518 -9.703636 -3.524258 0.156844 -2.307299 1.897680 -46.049320 -47.064617 173.657724 -73.648646 172.479174 0.000000 0.000000 0.000000 2.307013 -0.898898 -0.190297 -0.112975 -2.038546 9.372929 -3.634892 6.917897 -0.984767 -24.292319 -8.404043 46.363013 -178.726516 66.148237 178.062349 0.000000 0.000000 0.000000 
-0.837510 27.886457 1.085716 0.000000 0.000000 0.000000 4.718311 56.809545 -8.986480 -2.717819 5.450778 30.591833 52.260445 -7.848997 9.877264 -30.705232 10.513562 -20.737913 -5.594050 0.715200 -4.586606 0.000000 0.000000 0.000000 7.778820 56.094896 -10.494929 -37.474133 13.075572 -30.027807 28.790108 12.717297 -1.200453 -2.469986 7.893843 23.261143 -9.224588 0.117461 0.737034 0.000000 0.000000 0.000000 7.628975 58.216311 -8.389119 0.108128 -3.209626 -1.417993 2.535852 -0.667699 -0.194615 1.229271 -1.044963 0.154933 0.000000 0.000000 0.000000 2.144570 -1.039589 0.011940 -5.592450 -10.571188 -0.999782 -0.912086 -41.811969 6.687891 0.000000 0.000000 0.000000 1.662314 -1.154594 -0.157045 0.375501 -8.785165 -8.714165 -4.103825 -0.805888 -1.033659 -1.505320 -46.313744 -47.337606 175.195705 -72.423658 174.251363 0.000000 0.000000 0.000000 2.361084 -0.874045 -0.085148 -0.065248 -1.984260 9.053417 -3.901702 5.752082 -1.737199 -25.557084 -8.953896 45.528774 -179.327750 65.114577 178.406112 0.000000 0.000000 0.000000 
-0.752010 30.126892 0.442259 0.000000 0.000000 0.000000 4.427091 53.671456 -8.856361 -3.346718 3.277671 29.993591 46.955850 -5.868392 7.961857 -19.774093 8.552302 -19.577935 -2.862070 0.599930 -7.557804 0.000000 0.000000 0.000000 7.884955 51.407699 -10.005716 -35.028851 9.413841 -27.821987 19.527137 13.597089 -0.055924 0.104567 10.070860 25.582110 -9.302048 1.069755 0.132885 0.000000 0.000000 0.000000 7.730534 53.249985 -8.274227 -0.522877 -3.057540 -0.627013 2.352019 -0.533484 -0.228739 1.314331 -0.785191 0.183849 0.000000 0.000000 0.000000 2.574309 -0.792503 -0.109624 -5.133383 -9.968875 -0.581689 -0.547528 -40.473088 6.556426 0.000000 0.000000 0.000000 1.909629 -0.966922 -0.114662 0.416747 -8.586217 -7.266621 -3.623118 -1.420279 -0.751260 -6.062464 -45.860984 -47.244654 177.120739 -70.352875 176.235136 0.000000 0.000000 0.000000 2.494615 -0.745736 -0.140851 0.024745 -1.576150 8.373425 -3.731401 4.410886 -1.544958 -27.434035 -7.762438 43.141848 -179.237852 63.940679 178.137098 0.000000 0.000000 0.000000 
-0.529831 32.730701 -0.455009 0.000000 0.000000 0.000000 3.686848 48.753047 -8.362721 -4.061334 2.280627 28.640143 41.680898 -4.175563 5.976992 -6.046519 5.104983 -19.138745 -4.981250 0.538393 -9.080182 0.000000 0.000000 0.000000 6.979070 45.558250 -9.002382 -32.083140 5.702007 -24.247532 11.528090 13.031175 1.232082 1.461531 10.343745 24.672907 -7.424081 1.607123 -0.050961 0.000000 0.000000 0.000000 7.185896 47.079647 -7.554228 -0.808882 -2.686745 0.170855 2.281143 -0.282624 -0.326145 1.274182 -0.594906 0.259928 0.000000 0.000000 0.000000 2.946351 -0.450670 -0.277265 -4.637349 -9.096668 -0.146063 -0.071735 -37.878057 6.289598 0.000000 0.000000 0.000000 2.246797 -0.649422 -0.139165 0.432846 -7.884601 -5.713442 -2.699365 -1.460476 -1.178033 -10.881729 -44.373495 -47.110099 178.830103 -68.292705 177.882892 0.000000 0.000000 0.000000 2.685909 -0.512880 -0.318090 0.123444 -0.790033 7.602756 -3.240681 3.682619 -0.847312 -29.138468 -5.029178 40.144860 -178.772661 63.114028 177.654668 0.000000 0.000000 0.000000 
-0.243377 35.108063 -1.183084 0.000000 0.000000 0.000000 2.443669 42.787758 -7.281359 -4.398500 2.771391 25.945291 38.035254 -2.096206 4.399593 3.501232 2.077622 -16.218141 -11.413410 0.674554 -8.345392 0.000000 0.000000 0.000000 4.932872 39.022640 -7.546900 -29.646655 2.345770 -20.371411 8.780254 11.092641 2.028492 1.392439 8.007461 21.129694 -5.844262 1.663568 -0.042289 0.000000 0.000000 0.000000 5.942250 40.878580 -6.334217 -0.635680 -2.152897 0.782290 2.357420 0.044600 -0.420037 1.111153 -0.432162 0.183454 0.000000 0.000000 0.000000 3.196824 -0.074830 -0.414032 -4.176955 -7.945320 0.188506 0.474450 -34.327721 5.906198 0.000000 0.000000 0.000000 2.617673 -0.258793 -0.201309 0.386630 -6.808029 -4.364402 -1.968954 -0.843629 -1.635643 -15.138081 -42.093363 -47.069204 -179.986085 -66.893944 178.964849 0.000000 0.000000 0.000000 2.875871 -0.188566 -0.539557 0.264631 0.293963 7.119584 -2.627970 3.724632 -0.447400 -30.175366 -1.431955 37.454432 -178.205564 62.937133 177.252643 0.000000 0.000000 0.000000 
0.112941 36.759117 -1.562826 0.000000 0.000000 0.000000 0.778135 35.992768 -5.703593 -6.194444 4.217001 23.082235 38.121765 0.310889 3.067812 6.537285 0.738688 -12.146224 -14.062300 0.897060 -8.220680 0.000000 0.000000 0.000000 1.994741 32.920788 -5.786212 -28.194066 -0.043072 -17.359156 13.056800 8.911498 2.197242 -0.005956 4.146297 16.400760 -5.508064 1.390784 -0.100524 0.000000 0.000000 0.000000 3.972243 35.477382 -4.790185 -0.057280 -1.536074 1.117862 2.542834 0.423823 -0.458593 0.995701 -0.360948 -0.007746 0.000000 0.000000 0.000000 3.292140 0.265331 -0.480796 -3.827686 -6.557568 0.348281 1.041759 -30.231592 5.451663 0.000000 0.000000 0.000000 2.958797 0.132934 -0.276901 0.306542 -5.650561 -3.505814 -1.751501 -0.097276 -2.084733 -17.670068 -39.280322 -47.157979 -179.368745 -66.393728 179.528039 0.000000 0.000000 0.000000 3.042732 0.179634 -0.715777 0.444317 1.498418 7.214936 -2.079255 4.038598 -0.387143 -30.266914 2.105727 35.773420 -177.845067 63.569773 177.206663 0.000000 0.000000 0.000000 
0.469509 37.638885 -1.936026 0.000000 0.000000 0.000000 -0.795423 28.358088 -3.889654 -10.786558 5.326748 21.185780 41.297311 2.133822 2.118275 5.884085 0.345908 -9.974153 -10.026605 1.039796 -8.917503 0.000000 0.000000 0.000000 -0.621032 27.991674 -3.975805 -27.329520 -1.203007 -16.107430 22.440588 7.355952 2.113416 -2.329064 0.423581 12.314247 -4.801978 1.041731 -0.139340 0.000000 0.000000 0.000000 1.817263 30.140259 -3.296347 0.697389 -0.909247 1.129372 2.775223 0.799491 -0.446721 0.980728 -0.198641 0.028317 0.000000 0.000000 0.000000 3.255743 0.561728 -0.470777 -3.425815 -5.052351 0.306519 1.539363 -25.965929 4.979694 0.000000 0.000000 0.000000 3.227722 0.487786 -0.356591 0.248237 -4.473491 -3.269434 -1.996822 0.582397 -2.339155 -18.263340 -36.438120 -47.659988 -179.218017 -66.940273 179.706553 0.000000 0.000000 0.000000 3.199344 0.562726 -0.824620 0.622994 2.539490 7.992792 -1.678500 4.482223 -0.805245 -29.705200 4.803449 35.382658 -177.898137 64.909057 177.586476 0.000000 0.000000 0.000000 
0.774646 37.857285 -2.324749 0.000000 0.000000 0.000000 -1.541366 21.422241 -2.196132 -16.851228 4.256611 20.121683 44.266490 1.878933 2.172931 5.638934 -0.266913 -12.216946 -3.394870 1.001713 -8.649409 0.000000 0.000000 0.000000 -1.872601 23.942719 -2.425131 -26.225860 -1.249767 -16.911755 32.269160 6.957778 1.736942 -4.478226 -1.982790 10.042869 -3.255485 0.875674 -0.119636 0.000000 0.000000 0.000000 0.136015 25.068961 -2.196336 1.283831 -0.289703 0.886809 2.969562 1.138403 -0.435522 0.705962 -0.078395 0.428758 0.000000 0.000000 0.000000 3.177956 0.837728 -0.397868 -2.878806 -3.470100 0.099900 1.821930 -21.897199 4.534974 0.000000 0.000000 0.000000 3.355558 0.809760 -0.445187 0.229259 -3.391293 -3.683650 -2.519191 0.722447 -2.183117 -16.661188 -34.072552 -48.374152 -179.574607 -68.164742 179.437402 0.000000 0.000000 0.000000 3.297585 0.942044 -0.851001 0.789057 3.301799 9.279111 -1.420636 4.754966 -1.439785 -28.916658 6.501535 36.225213 -178.282950 66.496242 178.201329 0.000000 0.000000 0.000000 
1.077934 37.557747 -2.412264 0.000000 0.000000 0.000000 -1.132368 15.627367 -0.915875 -22.439808 1.427568 19.908560 44.044939 -0.133656 3.150539 6.853062 -1.522044 -17.588314 -0.099896 1.085366 -6.455456 0.000000 0.000000 0.000000 -1.595416 19.683960 -1.163115 -24.464867 -0.528218 -19.452133 38.292855 7.710512 0.907813 -4.995710 -2.746239 10.472113 -3.047866 0.996152 -0.053471 0.000000 0.000000 0.000000 -1.041780 19.990487 -1.402462 1.517778 0.253171 0.506405 3.040014 1.428800 -0.449238 0.626746 -0.513944 0.889927 0.000000 0.000000 0.000000 3.105514 1.104938 -0.319014 -2.288190 -1.949374 -0.133214 1.855220 -18.215553 4.189819 0.000000 0.000000 0.000000 3.246531 1.115472 -0.542474 0.223756 -2.539283 -4.604983 -3.249698 -0.068279 -1.801213 -13.567968 -31.821489 -49.088115 179.809415 -69.433982 179.018712 0.000000 0.000000 0.000000 3.280069 1.295768 -0.799713 0.902341 3.718389 10.827473 -1.355101 4.582715 -1.974823 -28.250663 7.521078 37.941796 -178.924332 67.870873 178.929824 0.000000 0.000000 0.000000 
1.347680 36.853825 -2.465717 0.000000 0.000000 0.000000 0.154822 10.271586 -0.092134 -26.560574 -1.197741 20.671016 40.286283 -2.169944 4.251727 7.557631 -2.832320 -21.946072 -1.185767 1.181682 -3.329958 0.000000 0.000000 0.000000 -0.264852 14.849519 -0.312026 -22.125293 0.318901 -23.005819 39.290916 9.472260 0.043239 -3.558862 -2.173498 13.441982 -5.508378 1.276766 0.179293 0.000000 0.000000 0.000000 -1.150459 14.535100 -1.034457 1.396141 0.766016 0.171978 2.993035 1.671586 -0.505089 0.737784 -1.095269 1.151190 0.000000 0.000000 0.000000 3.028691 1.396182 -0.281834 -1.820896 -0.631456 -0.324234 1.692151 -14.914244 3.974096 0.000000 0.000000 0.000000 2.928823 1.434289 -0.634620 0.211271 -1.902204 -5.738726 -3.820422 -1.195247 -1.404342 -10.326889 -29.275929 -49.491978 179.254954 -70.386076 178.765940 0.000000 0.000000 0.000000 3.113742 1.625714 -0.722690 0.951066 3.881520 12.296852 -1.450402 4.017295 -2.272034 -27.908011 8.583828 39.992636 -179.612993 68.754105 179.569935 0.000000 0.000000 0.000000 
